Coordinates
version=1
nRows=32
nColumns=22
inDegrees=yes

Units are S.I. units (second, meters, Newtons, ...)
If the header above contains a line with 'inDegrees', this indicates whether rotational values are in degrees (yes) or radians (no).

endheader
time	pelvis_tilt	pelvis_list	pelvis_rotation	pelvis_tx	pelvis_ty	pelvis_tz	hip_flexion_r	hip_adduction_r	hip_rotation_r	knee_angle_r	ankle_angle_r	subtalar_angle_r	hip_flexion_l	hip_adduction_l	hip_rotation_l	knee_angle_l	ankle_angle_l	subtalar_angle_l	lumbar_extension	lumbar_bending	lumbar_rotation
      1.25000000	     -4.83487163	     -2.27377737	     -2.90344206	     -1.39243918	      0.99065723	     -0.65114352	     31.32988180	     -1.10657520	     -6.33441984	    -31.36503984	     10.55005595	      0.49407927	     -4.27193957	      0.92414104	    -10.07998410	     -7.04435002	     16.88835900	     -3.80750286	     -6.48409556	     -1.65143689	     -4.23942899
      1.26000000	     -4.70445191	     -2.33252222	     -2.82988093	     -1.38840303	      0.98991840	     -0.65075413	     31.50004359	     -1.02381288	     -6.62445672	    -29.80928072	     10.29552422	      0.87141741	     -4.65920629	      0.84862470	    -10.07231937	     -7.06217252	     17.18938455	     -3.73122651	     -6.76964654	     -1.53391555	     -4.34863222
      1.27000000	     -4.57405512	     -2.38083086	     -2.75253163	     -1.38419288	      0.98908657	     -0.65033023	     31.64996950	     -0.95962390	     -6.93228786	    -28.27040608	     10.02129249	      1.26108591	     -5.06081461	      0.78069535	    -10.07493146	     -7.07238439	     17.51332909	     -3.65062095	     -7.04612492	     -1.42152845	     -4.45636381
      1.28000000	     -4.41817525	     -2.41439015	     -2.66866990	     -1.37982405	      0.98820429	     -0.64986783	     31.74998809	     -0.91698672	     -7.24348625	    -26.75542288	      9.76365056	      1.70053716	     -5.49481478	      0.72458713	    -10.06856297	     -7.09222764	     17.85045709	     -3.54340694	     -7.34643455	     -1.32343645	     -4.55070809
      1.29000000	     -4.24459392	     -2.42844808	     -2.58633912	     -1.37528568	      0.98725325	     -0.64935392	     31.81854992	     -0.90071290	     -7.56918551	    -25.29476610	      9.52863089	      2.19135094	     -5.95446402	      0.68528944	    -10.05870542	     -7.12120657	     18.19913281	     -3.40608009	     -7.66046282	     -1.24907285	     -4.61891870
      1.30000000	     -4.09943439	     -2.45022754	     -2.49278219	     -1.37055488	      0.98617196	     -0.64881633	     31.89761752	     -0.89064660	     -7.94695517	    -23.89043896	      9.27190839	      2.62439042	     -6.39056774	      0.63098242	    -10.06312994	     -7.15843317	     18.57673332	     -3.30644863	     -7.92570861	     -1.15186668	     -4.70467515
      1.31000000	     -3.90817873	     -2.44452772	     -2.40472418	     -1.36565421	      0.98507432	     -0.64821979	     31.91561605	     -0.91095702	     -8.31972127	    -22.56139354	      9.09044881	      3.14439108	     -6.87581534	      0.60245965	    -10.05341469	     -7.21905308	     18.94411868	     -3.14331398	     -8.23849862	     -1.08854753	     -4.75425896
      1.32000000	     -3.75392769	     -2.45355072	     -2.30260272	     -1.36055074	      0.98384172	     -0.64760257	     31.95808855	     -0.93385499	     -8.76721758	    -21.31740960	      8.90058656	      3.56894103	     -7.32321054	      0.54939059	    -10.05156714	     -7.29973769	     19.34164875	     -3.02714027	     -8.49066169	     -0.99441564	     -4.82481279
      1.33000000	     -3.57822742	     -2.44825645	     -2.20306453	     -1.35526834	      0.98257168	     -0.64693204	     31.96860724	     -0.97603902	     -9.23611932	    -20.17037698	      8.76158600	      4.00612720	     -7.79181463	      0.50676921	    -10.04500694	     -7.40694997	     19.73506995	     -2.87712787	     -8.75768615	     -0.91526059	     -4.87158629
      1.34000000	     -3.42171405	     -2.44494953	     -2.09591656	     -1.34980266	      0.98120763	     -0.64623655	     31.99494095	     -1.03059121	     -9.76746403	    -19.13820906	      8.64210334	      4.36973010	     -8.23173434	      0.45385662	    -10.03078118	     -7.55399870	     20.14941294	     -2.74462601	     -8.98933601	     -0.82346130	     -4.90881918
      1.35000000	     -3.26913358	     -2.44238433	     -1.98705880	     -1.34413979	      0.97979134	     -0.64548234	     32.01341886	     -1.08976022	    -10.32769567	    -18.21391142	      8.57168616	      4.68822378	     -8.66737199	      0.39238518	    -10.01354357	     -7.72631638	     20.54743794	     -2.59883412	     -9.20256336	     -0.72774481	     -4.94065822
      1.36000000	     -3.11886134	     -2.43748642	     -1.87388059	     -1.33828352	      0.97833664	     -0.64469126	     32.02445069	     -1.15920569	    -10.91112015	    -17.40610441	      8.52148334	      4.96417882	     -9.10188783	      0.32703020	    -10.00282734	     -7.91865617	     20.93963642	     -2.43303438	     -9.39869081	     -0.62486881	     -4.98230263
      1.37000000	     -2.97868377	     -2.43148588	     -1.75619916	     -1.33223368	      0.97684299	     -0.64385744	     32.03961053	     -1.23881692	    -11.52233723	    -16.72544019	      8.48477689	      5.18228153	     -9.52652278	      0.25543441	     -9.99140200	     -8.13378003	     21.31922348	     -2.25188083	     -9.57084924	     -0.51690011	     -5.02169497
      1.38000000	     -2.85846853	     -2.41718504	     -1.63325292	     -1.32600355	      0.97530756	     -0.64298809	     32.06905369	     -1.33404696	    -12.13516668	    -16.17536070	      8.46381637	      5.32571900	     -9.92623487	      0.18513073	     -9.97163698	     -8.37752395	     21.67724590	     -2.07665485	     -9.71050995	     -0.40931710	     -5.07087636
      1.39000000	     -2.74327708	     -2.40603095	     -1.49881388	     -1.31955975	      0.97377626	     -0.64208256	     32.08795908	     -1.43730124	    -12.75829161	    -15.74795557	      8.44124152	      5.41961420	    -10.32991934	      0.10370553	     -9.93801563	     -8.62894676	     21.99762611	     -1.86762816	     -9.82885242	     -0.28926512	     -5.12818629
      1.40000000	     -2.64197424	     -2.38327747	     -1.35824417	     -1.31292248	      0.97224615	     -0.64113425	     32.11015190	     -1.55854197	    -13.35945994	    -15.44983743	      8.41156256	      5.45408558	    -10.72651833	      0.02755277	     -9.89241147	     -8.88779325	     22.27288926	     -1.63943135	     -9.92180600	     -0.17389588	     -5.19666552
      1.41000000	     -2.55333573	     -2.35124355	     -1.20668197	     -1.30607881	      0.97074134	     -0.64015139	     32.12658834	     -1.69640764	    -13.92739633	    -15.27125411	      8.36523098	      5.43112799	    -11.12201491	     -0.04663838	     -9.82296733	     -9.14575997	     22.49030055	     -1.37827936	     -9.99051719	     -0.05894863	     -5.28159755
      1.42000000	     -2.46232900	     -2.32329119	     -1.06373303	     -1.29900047	      0.96930809	     -0.63907291	     32.11722498	     -1.82261587	    -14.43305667	    -15.20536500	      8.26590629	      5.32195014	    -11.54863804	     -0.13068936	     -9.75779532	     -9.37827183	     22.64380596	     -0.98560484	    -10.04881439	      0.06224626	     -5.35240361
      1.43000000	     -2.40929647	     -2.26060711	     -0.89529823	     -1.29174085	      0.96788743	     -0.63799403	     32.13568615	     -1.99806706	    -14.88252839	    -15.27007039	      8.16247230	      5.17478796	    -11.93694281	     -0.18850244	     -9.61876457	     -9.62361543	     22.72332511	     -0.67359432	    -10.05854496	      0.16125813	     -5.47195762
      1.44000000	     -2.35965084	     -2.18402793	     -0.72266663	     -1.28424842	      0.96657368	     -0.63682869	     32.12163097	     -2.17967537	    -15.25135916	    -15.41881065	      7.99433537	      4.93452625	    -12.33823876	     -0.24433460	     -9.49316739	     -9.85916117	     22.72961846	     -0.27095030	    -10.05389297	      0.24830188	     -5.61225834
      1.45000000	     -2.34021854	     -2.07595075	     -0.52499034	     -1.27655839	      0.96535116	     -0.63563042	     32.11795809	     -2.40147418	    -15.54794599	    -15.67484931	      7.76028394	      4.73181858	    -12.72485827	     -0.27774191	     -9.25312412	    -10.07718660	     22.59707025	      0.05217636	    -10.00865913	      0.30977477	     -5.79625817
      1.46000000	     -2.31569478	     -1.98599703	     -0.35000307	     -1.26859128	      0.96427377	     -0.63428953	     32.08454316	     -2.58600473	    -15.80195647	    -16.02843147	      7.44952086	      4.30454134	    -13.14471184	     -0.33951418	     -9.03812122	    -10.27698331	     22.44160215	      0.58381505	     -9.95701364	      0.39154315	     -5.94220885
      1.47000000	     -2.31776200	     -1.87915429	     -0.16761301	     -1.26040917	      0.96334911	     -0.63286667	     32.05087946	     -2.78104937	    -15.97992633	    -16.45633496	      7.01713438	      3.87925645	    -13.54751834	     -0.39652168	     -8.76385921	    -10.47088644	     22.14131389	      1.08223441	     -9.86868592	      0.46262738	     -6.12565906
      1.48000000	     -2.33497643	     -1.78103216	      0.00885239	     -1.25198364	      0.96260385	     -0.63130818	     32.00581709	     -2.95356739	    -16.12091192	    -16.95062764	      6.46407076	      3.34049373	    -13.94429359	     -0.47755754	     -8.46515228	    -10.66653906	     21.74149576	      1.64829844	     -9.75437818	      0.54487511	     -6.31548877
      1.49000000	     -2.37141621	     -1.70071049	      0.17267839	     -1.24330994	      0.96205758	     -0.62960035	     31.95399100	     -3.09175903	    -16.23489769	    -17.49880594	      5.78631812	      2.71534324	    -14.32374279	     -0.59128165	     -8.15608773	    -10.87463786	     21.23235938	      2.25650173	     -9.60889047	      0.64851819	     -6.50891140
      1.50000000	     -2.42015147	     -1.63502296	      0.32913174	     -1.23440079	      0.96173119	     -0.62777405	     31.89666796	     -3.20953537	    -16.36799139	    -18.10221583	      5.01477283	      2.03262633	    -14.68696353	     -0.73086273	     -7.78633844	    -11.10462086	     20.61881603	      2.89573114	     -9.44247222	      0.77391181	     -6.69772604
      1.51000000	     -2.48352875	     -1.60248861	      0.46152739	     -1.22525206	      0.96163981	     -0.62575908	     31.83028582	     -3.27487648	    -16.51152922	    -18.73369550	      4.15723635	      1.27821390	    -15.01573608	     -0.91807532	     -7.42206626	    -11.38408544	     19.89674958	      3.58197796	     -9.25091254	      0.93300977	     -6.87013289
      1.52000000	     -2.55603952	     -1.59711042	      0.57431888	     -1.21586992	      0.96179183	     -0.62359244	     31.75438584	     -3.30465165	    -16.69971583	    -19.39354066	      3.26736393	      0.50327351	    -15.30927180	     -1.14229737	     -7.04344687	    -11.71986718	     19.07118833	      4.30095420	     -9.04082754	      1.12520732	     -7.03627721
      1.53000000	     -2.63663344	     -1.62169203	      0.66808129	     -1.20626385	      0.96219298	     -0.62127845	     31.66670852	     -3.29829260	    -16.93519951	    -20.07017153	      2.38542578	     -0.24355139	    -15.55688655	     -1.40550967	     -6.66684311	    -12.12804488	     18.14042460	      5.04259440	     -8.81241503	      1.35470539	     -7.19601450
      1.54000000	     -2.72670589	     -1.68692362	      0.71205105	     -1.19643624	      0.96283381	     -0.61873945	     31.55778640	     -3.21996465	    -17.16922853	    -20.72796642	      1.55830159	     -0.96594866	    -15.74902050	     -1.71309651	     -6.34016589	    -12.62564838	     17.09257404	      5.83156104	     -8.56312163	      1.62440578	     -7.32026458
      1.55000000	     -2.81618427	     -1.77189465	      0.74277787	     -1.18642493	      0.96371501	     -0.61608721	     31.42719937	     -3.12467590	    -17.46435221	    -21.39066806	      0.84082430	     -1.57386782	    -15.87702132	     -2.04637586	     -6.02906928	    -13.23174796	     15.95181886	      6.62689604	     -8.30597374	      1.92375146	     -7.45946439
      1.56000000	     -2.90843972	     -1.88328034	      0.73444409	     -1.17624625	      0.96481259	     -0.61324139	     31.26645181	     -2.97769008	    -17.75153181	    -22.02164953	      0.25743685	     -2.06352509	    -15.93157685	     -2.40819993	     -5.77166484	    -13.95830007	     14.69367902	      7.43576893	     -8.03716975	      2.24751896	     -7.57926342
